<?xml version="1.0" encoding="UTF-8"?>
<!DOCTYPE svg PUBLIC "-//W3C//DTD SVG 1.1//EN" "http://www.w3.org/Graphics/SVG/1.1/DTD/svg11.dtd">
<svg xmlns="http://www.w3.org/2000/svg" version="1.1" width="1024px" height="1024px" viewBox="0 0 1024 1024" style="shape-rendering:geometricPrecision; text-rendering:geometricPrecision; image-rendering:optimizeQuality; fill-rule:evenodd; clip-rule:evenodd" xmlns:xlink="http://www.w3.org/1999/xlink">
<g><path style="opacity:1" fill="#85b19b" d="M 542.5,333.5 C 559.271,336.091 575.271,341.091 590.5,348.5C 588.743,348.993 586.909,349.327 585,349.5C 584.333,350.167 584.333,350.833 585,351.5C 585.718,350.549 586.551,350.383 587.5,351C 586.5,352 585.5,353 584.5,354C 584.5,355.333 584.5,356.667 584.5,358C 582.275,358.561 580.275,359.561 578.5,361C 578.833,361.333 579.167,361.667 579.5,362C 577.981,363.351 576.648,364.851 575.5,366.5C 576.242,368.35 577.242,369.016 578.5,368.5C 576.635,369.666 574.968,369.333 573.5,367.5C 570.539,368.183 570.205,369.016 572.5,370C 570.833,371 569.167,372 567.5,373C 568.167,373.333 568.833,373.667 569.5,374C 564.482,374.544 564.482,375.711 569.5,377.5C 577.99,378.167 586.324,378.833 594.5,379.5C 584.833,379.5 575.167,379.5 565.5,379.5C 564.833,384.833 564.167,390.167 563.5,395.5C 549.461,384.489 535.461,373.489 521.5,362.5C 521.742,357.857 523.576,357.191 527,360.5C 527.996,358.256 529.496,356.423 531.5,355C 530.062,354.781 528.729,354.281 527.5,353.5C 529.829,352.002 531.663,350.002 533,347.5C 533.333,347.833 533.667,348.167 534,348.5C 534.92,346.368 536.087,344.368 537.5,342.5C 538.086,342.709 538.586,343.043 539,343.5C 539.471,341.754 540.138,340.087 541,338.5C 541.667,339.167 542.333,339.833 543,340.5C 542.793,338.249 542.627,335.915 542.5,333.5 Z"/></g>
<g><path style="opacity:1" fill="#71a5a9" d="M 449.5,341.5 C 450.94,342.363 452.274,342.363 453.5,341.5C 454.281,342.729 454.781,344.062 455,345.5C 455.333,345.167 455.667,344.833 456,344.5C 457.067,345.191 458.234,345.691 459.5,346C 458.833,346.333 458.167,346.667 457.5,347C 458.833,347.667 458.833,348.333 457.5,349C 458.572,350.284 459.905,350.617 461.5,350C 461.665,351.117 461.998,352.284 462.5,353.5C 461.609,354.59 460.609,354.59 459.5,353.5C 458.749,354.376 458.249,355.376 458,356.5C 457.577,355.044 456.744,354.544 455.5,355C 455.588,356.578 455.588,358.078 455.5,359.5C 454.377,355.853 452.043,354.019 448.5,354C 451.167,355.333 451.167,356.667 448.5,358C 449.833,358.333 451.167,358.667 452.5,359C 450.782,359.346 449.115,359.846 447.5,360.5C 446.749,359.624 446.249,358.624 446,357.5C 444.764,359.307 444.43,361.307 445,363.5C 444.586,363.043 444.086,362.709 443.5,362.5C 443.467,363.989 442.967,365.322 442,366.5C 441.692,365.692 441.192,365.025 440.5,364.5C 439.669,366.473 439.502,368.473 440,370.5C 436.811,373.288 434.478,375.954 433,378.5C 430.716,382.223 428.716,382.223 427,378.5C 426.986,380.598 427.153,382.431 427.5,384C 427.167,384.167 426.833,384.333 426.5,384.5C 425.719,383.271 425.219,381.938 425,380.5C 423.719,380.381 422.552,380.881 421.5,382C 423.081,383.828 424.415,385.828 425.5,388C 423.714,388.785 422.214,389.951 421,391.5C 420.383,390.551 420.549,389.718 421.5,389C 419.854,387.599 418.187,387.432 416.5,388.5C 417.167,388.833 417.833,389.167 418.5,389.5C 417.737,390.719 416.737,391.719 415.5,392.5C 417.162,394.311 417.328,395.978 416,397.5C 415.448,394.803 413.948,392.803 411.5,391.5C 411.167,391.833 410.833,392.167 410.5,392.5C 411.5,393.833 412.5,395.167 413.5,396.5C 410.985,397.2 410.318,398.533 411.5,400.5C 409.333,402.833 407.167,405.167 405,407.5C 403.912,404.007 402.745,403.841 401.5,407C 404.875,408.029 406.042,410.196 405,413.5C 404.333,412.167 403.667,410.833 403,409.5C 401.704,411.531 400.204,413.364 398.5,415C 398.833,415.333 399.167,415.667 399.5,416C 397.359,415.914 395.026,416.081 392.5,416.5C 392.141,418.766 392.808,420.599 394.5,422C 393.207,422.49 391.873,422.657 390.5,422.5C 390.649,421.448 390.483,420.448 390,419.5C 389.995,422.229 388.829,424.229 386.5,425.5C 389.028,426.517 389.028,427.684 386.5,429C 386.833,429.333 387.167,429.667 387.5,430C 386.175,429.852 385.008,430.018 384,430.5C 383.043,428.291 381.876,428.457 380.5,431C 381.167,432.333 381.833,433.667 382.5,435C 382.167,435.167 381.833,435.333 381.5,435.5C 380.506,431.519 379.506,431.519 378.5,435.5C 379.836,437.375 379.336,438.708 377,439.5C 375.984,438.366 375.317,438.699 375,440.5C 373.415,439.624 372.415,438.291 372,436.5C 371.667,436.833 371.333,437.167 371,437.5C 370.163,435.993 368.996,435.493 367.5,436C 368.925,437.362 369.758,438.862 370,440.5C 368.29,439.055 366.456,438.222 364.5,438C 365.576,439.726 365.743,441.559 365,443.5C 364.74,441.382 363.74,439.716 362,438.5C 361.667,439.167 361.333,439.833 361,440.5C 360.333,439.167 359.667,439.167 359,440.5C 358.085,439.672 357.419,438.672 357,437.5C 356.985,439.554 356.152,441.554 354.5,443.5C 353.833,442.5 353.167,441.5 352.5,440.5C 352.167,440.667 351.833,440.833 351.5,441C 352.517,442.049 352.684,443.216 352,444.5C 351.138,442.913 350.471,441.246 350,439.5C 349.654,441.218 349.154,442.885 348.5,444.5C 349.609,445.965 349.109,446.965 347,447.5C 345.667,450.833 344.333,454.167 343,457.5C 342.219,453.06 343.219,449.06 346,445.5C 346.953,442.568 347.453,439.568 347.5,436.5C 351.825,426.507 357.159,417.174 363.5,408.5C 362.196,413.103 360.362,417.436 358,421.5C 354.923,423.977 353.756,426.977 354.5,430.5C 356.556,426.425 359.056,422.758 362,419.5C 362.402,420.872 362.902,422.205 363.5,423.5C 365.5,424.833 367.167,426.5 368.5,428.5C 371.472,427.164 371.805,425.664 369.5,424C 370.104,421.532 371.438,419.532 373.5,418C 372.376,417.751 371.376,417.251 370.5,416.5C 371.246,415.264 371.579,413.93 371.5,412.5C 375.311,413.135 378.977,413.135 382.5,412.5C 385.26,410.287 387.927,407.287 390.5,403.5C 393.658,404.153 393.992,403.319 391.5,401C 393.099,399.214 393.933,397.047 394,394.5C 394.419,395.672 395.085,396.672 396,397.5C 396.743,395.559 396.576,393.726 395.5,392C 396.362,389.266 397.195,389.099 398,391.5C 400.192,390.601 402.358,389.601 404.5,388.5C 405.711,387.726 405.711,386.893 404.5,386C 405.833,385.333 407.167,385.333 408.5,386C 407.72,387.073 407.887,388.24 409,389.5C 409.749,387.32 410.249,384.987 410.5,382.5C 410.911,383.262 411.077,384.262 411,385.5C 412.044,384.377 412.71,383.044 413,381.5C 413.914,382.654 414.747,382.487 415.5,381C 415.167,380.667 414.833,380.333 414.5,380C 417.533,377.726 420.7,375.559 424,373.5C 424.333,374.5 424.667,375.5 425,376.5C 425.186,374.1 425.686,371.766 426.5,369.5C 427.281,370.729 427.781,372.062 428,373.5C 428.758,371.231 428.591,369.064 427.5,367C 428.249,365.266 428.749,363.433 429,361.5C 429.75,360.874 430.584,360.374 431.5,360C 431.167,359.667 430.833,359.333 430.5,359C 432.132,357.69 433.799,357.19 435.5,357.5C 433.806,355.806 432.14,354.14 430.5,352.5C 432.725,351.106 435.058,349.94 437.5,349C 438.598,348.23 438.598,347.397 437.5,346.5C 441.203,344.321 445.203,342.655 449.5,341.5 Z"/></g>
<g><path style="opacity:1" fill="#6da3ab" d="M 437.5,346.5 C 438.598,347.397 438.598,348.23 437.5,349C 435.058,349.94 432.725,351.106 430.5,352.5C 432.14,354.14 433.806,355.806 435.5,357.5C 433.799,357.19 432.132,357.69 430.5,359C 430.833,359.333 431.167,359.667 431.5,360C 430.584,360.374 429.75,360.874 429,361.5C 428.749,363.433 428.249,365.266 427.5,367C 428.591,369.064 428.758,371.231 428,373.5C 427.781,372.062 427.281,370.729 426.5,369.5C 425.686,371.766 425.186,374.1 425,376.5C 424.667,375.5 424.333,374.5 424,373.5C 420.7,375.559 417.533,377.726 414.5,380C 414.833,380.333 415.167,380.667 415.5,381C 414.747,382.487 413.914,382.654 413,381.5C 412.71,383.044 412.044,384.377 411,385.5C 411.077,384.262 410.911,383.262 410.5,382.5C 410.249,384.987 409.749,387.32 409,389.5C 407.887,388.24 407.72,387.073 408.5,386C 407.167,385.333 405.833,385.333 404.5,386C 405.711,386.893 405.711,387.726 404.5,388.5C 402.358,389.601 400.192,390.601 398,391.5C 397.195,389.099 396.362,389.266 395.5,392C 396.576,393.726 396.743,395.559 396,397.5C 395.085,396.672 394.419,395.672 394,394.5C 393.933,397.047 393.099,399.214 391.5,401C 393.992,403.319 393.658,404.153 390.5,403.5C 387.927,407.287 385.26,410.287 382.5,412.5C 378.977,413.135 375.311,413.135 371.5,412.5C 371.579,413.93 371.246,415.264 370.5,416.5C 371.376,417.251 372.376,417.751 373.5,418C 371.438,419.532 370.104,421.532 369.5,424C 371.805,425.664 371.472,427.164 368.5,428.5C 367.167,426.5 365.5,424.833 363.5,423.5C 362.902,422.205 362.402,420.872 362,419.5C 359.056,422.758 356.556,426.425 354.5,430.5C 353.756,426.977 354.923,423.977 358,421.5C 360.362,417.436 362.196,413.103 363.5,408.5C 382.403,380.928 407.07,360.261 437.5,346.5 Z"/></g>
<g><path style="opacity:1" fill="#7caba1" d="M 542.5,333.5 C 542.627,335.915 542.793,338.249 543,340.5C 542.333,339.833 541.667,339.167 541,338.5C 540.138,340.087 539.471,341.754 539,343.5C 538.586,343.043 538.086,342.709 537.5,342.5C 536.087,344.368 534.92,346.368 534,348.5C 533.667,348.167 533.333,347.833 533,347.5C 531.663,350.002 529.829,352.002 527.5,353.5C 528.729,354.281 530.062,354.781 531.5,355C 529.496,356.423 527.996,358.256 527,360.5C 523.576,357.191 521.742,357.857 521.5,362.5C 518.714,360.887 516.047,359.054 513.5,357C 511.833,356.333 510.167,356.333 508.5,357C 482.958,377.381 457.291,397.548 431.5,417.5C 430.178,417.67 429.011,417.337 428,416.5C 426.411,419.383 423.911,420.883 420.5,421C 418.981,422.351 417.648,423.851 416.5,425.5C 414.902,426.485 413.235,426.651 411.5,426C 416.423,423.023 420.089,418.856 422.5,413.5C 423.167,413.833 423.833,414.167 424.5,414.5C 425.966,412.432 428.299,410.598 431.5,409C 430.833,408.667 430.167,408.333 429.5,408C 432.068,405.461 433.735,402.794 434.5,400C 433.833,399.667 433.167,399.333 432.5,399C 433.833,398.333 433.833,397.667 432.5,397C 433.5,396.333 434.5,396.333 435.5,397C 435.93,397.92 436.264,398.753 436.5,399.5C 437.816,396.972 438.983,396.972 440,399.5C 440.317,397.699 440.984,397.366 442,398.5C 442.667,397.5 442.667,396.5 442,395.5C 440.984,396.634 440.317,396.301 440,394.5C 439.086,395.654 438.253,395.487 437.5,394C 438.595,392.325 440.095,391.158 442,390.5C 443.651,388.598 443.984,386.598 443,384.5C 444.194,386.623 444.86,388.957 445,391.5C 445.582,388.332 446.582,387.999 448,390.5C 448.333,389.5 448.667,388.5 449,387.5C 450.364,388.258 451.531,387.758 452.5,386C 450.339,384.236 450.172,382.403 452,380.5C 452.708,384.603 454.874,385.603 458.5,383.5C 458.215,381.712 458.548,380.045 459.5,378.5C 460.324,380.748 461.324,380.914 462.5,379C 462.167,378.667 461.833,378.333 461.5,378C 462.967,376.902 463.801,375.402 464,373.5C 464.72,375.255 465.887,376.089 467.5,376C 468.089,374.127 467.422,372.46 465.5,371C 466.167,370.333 466.833,370.333 467.5,371C 468.147,372.609 468.98,374.109 470,375.5C 471.951,373.863 471.784,372.363 469.5,371C 470.665,369.916 471.998,369.083 473.5,368.5C 474.77,369.562 475.937,370.562 477,371.5C 477.374,370.584 477.874,369.75 478.5,369C 477.949,367.602 477.616,366.268 477.5,365C 478.167,364.667 478.833,364.333 479.5,364C 478.483,362.951 478.316,361.784 479,360.5C 479.691,362.891 480.691,362.891 482,360.5C 483.131,361.604 483.965,361.271 484.5,359.5C 483.5,357.167 484.167,356.5 486.5,357.5C 487.494,353.519 488.494,353.519 489.5,357.5C 487.942,359.405 488.275,360.239 490.5,360C 490.888,358.475 490.888,356.808 490.5,355C 491.253,353.513 492.086,353.346 493,354.5C 493.667,353.167 494.333,351.833 495,350.5C 496.333,351.167 497.333,352.167 498,353.5C 500.289,350.91 499.789,349.077 496.5,348C 497.865,346.318 499.365,346.151 501,347.5C 501.167,347 501.333,346.5 501.5,346C 499.654,344.22 497.987,342.22 496.5,340C 497.308,339.692 497.975,339.192 498.5,338.5C 497.737,337.281 496.737,336.281 495.5,335.5C 495.977,334.522 496.643,333.689 497.5,333C 493.514,332.501 489.514,332.334 485.5,332.5C 504.44,329.772 523.44,330.105 542.5,333.5 Z"/></g>
<g><path style="opacity:1" fill="#8ab597" d="M 590.5,348.5 C 599.642,352.342 607.976,357.342 615.5,363.5C 614.202,365.366 611.868,366.7 608.5,367.5C 607.754,368.736 607.421,370.07 607.5,371.5C 609.277,371.786 610.944,372.453 612.5,373.5C 613.647,373.182 614.481,372.516 615,371.5C 615.829,374.674 614.829,375.674 612,374.5C 611.424,377.124 610.09,377.791 608,376.5C 605.006,381.076 600.839,383.743 595.5,384.5C 595.5,396.833 595.5,409.167 595.5,421.5C 594.504,407.677 594.171,393.677 594.5,379.5C 586.324,378.833 577.99,378.167 569.5,377.5C 564.482,375.711 564.482,374.544 569.5,374C 568.833,373.667 568.167,373.333 567.5,373C 569.167,372 570.833,371 572.5,370C 570.205,369.016 570.539,368.183 573.5,367.5C 574.968,369.333 576.635,369.666 578.5,368.5C 577.242,369.016 576.242,368.35 575.5,366.5C 576.648,364.851 577.981,363.351 579.5,362C 579.167,361.667 578.833,361.333 578.5,361C 580.275,359.561 582.275,358.561 584.5,358C 584.5,356.667 584.5,355.333 584.5,354C 585.5,353 586.5,352 587.5,351C 586.551,350.383 585.718,350.549 585,351.5C 584.333,350.833 584.333,350.167 585,349.5C 586.909,349.327 588.743,348.993 590.5,348.5 Z"/></g>
<g><path style="opacity:1" fill="#90b992" d="M 615.5,363.5 C 630.081,372.746 642.414,384.413 652.5,398.5C 649.287,397.836 647.121,395.836 646,392.5C 644.853,393.458 643.853,393.125 643,391.5C 641.542,392.747 640.042,392.747 638.5,391.5C 637.524,393.123 638.024,394.457 640,395.5C 640.333,395.167 640.667,394.833 641,394.5C 643.308,398.418 646.141,401.918 649.5,405C 649.018,406.008 648.852,407.175 649,408.5C 648.25,407.874 647.416,407.374 646.5,407C 647.833,406.333 647.833,405.667 646.5,405C 645.552,404.517 644.552,404.351 643.5,404.5C 643.688,406.103 643.188,407.437 642,408.5C 638.986,404.473 636.986,404.473 636,408.5C 635.667,407.833 635.333,407.167 635,406.5C 634.443,408.615 633.609,410.615 632.5,412.5C 634.276,413.315 634.943,414.482 634.5,416C 633.584,416.374 632.75,416.874 632,417.5C 631.657,414.807 630.324,412.807 628,411.5C 627.5,412 627,412.5 626.5,413C 626.694,414.43 626.694,415.93 626.5,417.5C 625.5,416.833 624.5,416.167 623.5,415.5C 623.331,416.397 622.998,417.397 622.5,418.5C 620.191,417.067 618.691,417.734 618,420.5C 616.956,419.377 616.29,418.044 616,416.5C 615.282,415.549 614.449,415.383 613.5,416C 614.167,417.333 614.833,418.667 615.5,420C 615.167,420.167 614.833,420.333 614.5,420.5C 612.929,418.118 612.096,415.451 612,412.5C 611.667,413.833 611.333,415.167 611,416.5C 610.259,417.641 609.425,417.641 608.5,416.5C 605.528,417.836 605.195,419.336 607.5,421C 606.359,421.741 606.359,422.575 607.5,423.5C 606.833,424.167 606.167,424.833 605.5,425.5C 606.824,426.935 608.49,427.935 610.5,428.5C 609.873,429.417 609.539,430.417 609.5,431.5C 604.573,428.58 599.906,425.246 595.5,421.5C 595.5,409.167 595.5,396.833 595.5,384.5C 600.839,383.743 605.006,381.076 608,376.5C 610.09,377.791 611.424,377.124 612,374.5C 614.829,375.674 615.829,374.674 615,371.5C 614.481,372.516 613.647,373.182 612.5,373.5C 610.944,372.453 609.277,371.786 607.5,371.5C 607.421,370.07 607.754,368.736 608.5,367.5C 611.868,366.7 614.202,365.366 615.5,363.5 Z"/></g>
<g><path style="opacity:1" fill="#fcfdfc" d="M 620.5,472.5 C 618.735,473.461 616.735,473.795 614.5,473.5C 606.167,473.5 597.833,473.5 589.5,473.5C 588.17,508.002 588.17,542.669 589.5,577.5C 590.107,577.376 590.44,577.043 590.5,576.5C 590.833,575.5 591.5,574.833 592.5,574.5C 593.688,575.684 594.855,575.684 596,574.5C 596.333,576.047 595.833,577.38 594.5,578.5C 595.193,579.518 595.859,580.518 596.5,581.5C 592.378,586.794 588.044,591.96 583.5,597C 578.343,601.078 573.01,604.912 567.5,608.5C 568.833,610.5 570.167,612.5 571.5,614.5C 572.365,615.583 573.365,615.749 574.5,615C 586.804,608.198 597.804,599.698 607.5,589.5C 608.211,591.201 609.545,592.201 611.5,592.5C 601.417,604.798 588.917,613.798 574,619.5C 573.182,622.227 573.348,624.894 574.5,627.5C 585.405,624.256 595.738,619.756 605.5,614C 616.091,606.08 626.091,597.414 635.5,588C 641.026,583.64 646.693,579.474 652.5,575.5C 650.838,573.348 648.838,571.682 646.5,570.5C 649.07,567.934 651.737,567.934 654.5,570.5C 655.517,567.972 656.684,567.972 658,570.5C 658.309,572.513 657.642,572.846 656,571.5C 655.637,575.953 653.471,579.12 649.5,581C 650.527,581.513 651.527,582.013 652.5,582.5C 641.397,591.761 630.397,601.261 619.5,611C 605.84,622.231 590.173,629.231 572.5,632C 569.968,639.2 564.968,643.533 557.5,645C 547.5,645.667 537.5,645.667 527.5,645C 508.751,643.042 490.085,640.542 471.5,637.5C 470.5,636.833 469.5,636.167 468.5,635.5C 472.808,634.983 477.141,634.649 481.5,634.5C 501.526,635.947 521.526,637.613 541.5,639.5C 548.21,640.129 554.543,638.963 560.5,636C 567.961,626.353 566.961,617.686 557.5,610C 550.879,606.348 543.879,603.682 536.5,602C 525.141,600.786 513.807,599.453 502.5,598C 486.724,591.113 470.724,584.779 454.5,579C 432.216,572.268 409.883,571.934 387.5,578C 380.182,580.938 372.849,583.771 365.5,586.5C 364.791,585.596 363.791,585.263 362.5,585.5C 362.354,583.058 363.187,582.391 365,583.5C 366.072,580.447 365.072,578.447 362,577.5C 360.699,578.893 359.199,579.393 357.5,579C 358.999,578.162 359.332,577.329 358.5,576.5C 368.34,570.493 379.006,566.326 390.5,564C 407.412,561.261 424.412,559.261 441.5,558C 464.228,555.095 484.895,547.095 503.5,534C 521.31,518.548 531.31,499.048 533.5,475.5C 542.192,475.831 550.859,475.498 559.5,474.5C 554.182,467.515 548.182,461.182 541.5,455.5C 532.235,444.732 522.402,434.399 512,424.5C 494.941,439.724 479.108,456.058 464.5,473.5C 463.957,473.56 463.624,473.893 463.5,474.5C 472.141,475.498 480.808,475.831 489.5,475.5C 489.483,510.38 472.816,532.88 439.5,543C 422.936,546.011 406.603,549.845 390.5,554.5C 388.492,552.162 386.159,550.162 383.5,548.5C 391.412,544.767 399.745,542.1 408.5,540.5C 410.415,540.784 412.081,540.451 413.5,539.5C 420.343,538.434 427.009,537.101 433.5,535.5C 434.497,515.007 434.831,494.34 434.5,473.5C 425.833,473.5 417.167,473.5 408.5,473.5C 406.585,473.784 404.919,473.451 403.5,472.5C 439.106,443.693 475.106,415.36 511.5,387.5C 548.138,415.475 584.472,443.809 620.5,472.5 Z"/></g>
<g><path style="opacity:1" fill="#96bc8b" d="M 664.5,414.5 C 666.833,418.5 669.167,422.5 671.5,426.5C 669.321,428.164 667.488,427.83 666,425.5C 666.704,428.477 665.871,431.144 663.5,433.5C 664.782,437.557 666.949,440.224 670,441.5C 670.401,439.479 671.568,438.145 673.5,437.5C 674.941,438.865 676.274,440.365 677.5,442C 675.568,443.352 674.234,445.185 673.5,447.5C 673.089,446.738 672.923,445.738 673,444.5C 672.667,444.833 672.333,445.167 672,445.5C 670.13,443.781 667.963,442.781 665.5,442.5C 665.5,441.5 665.5,440.5 665.5,439.5C 663.027,439.736 661.36,441.069 660.5,443.5C 658.316,444.108 656.316,443.441 654.5,441.5C 653.749,442.376 653.249,443.376 653,444.5C 652.275,442.842 651.108,442.342 649.5,443C 650.167,443.333 650.833,443.667 651.5,444C 650.364,445.53 649.364,446.863 648.5,448C 649.167,448.333 649.833,448.667 650.5,449C 649.062,449.219 647.729,449.719 646.5,450.5C 646.709,451.086 647.043,451.586 647.5,452C 646.773,453.399 646.273,454.899 646,456.5C 643.823,455.713 641.989,455.713 640.5,456.5C 636.978,453.25 633.311,450.25 629.5,447.5C 631.752,446.043 631.419,444.543 628.5,443C 629.167,442.333 629.833,441.667 630.5,441C 629.069,440.535 627.903,439.701 627,438.5C 625.637,440.784 624.137,440.951 622.5,439C 625.879,438.289 627.379,436.122 627,432.5C 629.92,436.514 630.753,436.347 629.5,432C 631.706,431.268 633.372,431.935 634.5,434C 635.793,434.49 637.127,434.657 638.5,434.5C 639.138,432.54 639.138,430.707 638.5,429C 640.635,428.241 641.968,426.741 642.5,424.5C 643.729,423.719 645.062,423.219 646.5,423C 646.833,422 647.167,421 647.5,420C 651.321,419.601 651.988,418.268 649.5,416C 651.166,411.365 651.499,411.365 650.5,416C 651.833,416 653.167,416 654.5,416C 654.982,417.008 655.148,418.175 655,419.5C 657.95,416.795 660.283,417.129 662,420.5C 663.74,418.472 664.573,416.472 664.5,414.5 Z"/></g>
<g><path style="opacity:1" fill="#93ba8e" d="M 652.5,398.5 C 656.975,403.437 660.975,408.77 664.5,414.5C 664.573,416.472 663.74,418.472 662,420.5C 660.283,417.129 657.95,416.795 655,419.5C 655.148,418.175 654.982,417.008 654.5,416C 653.167,416 651.833,416 650.5,416C 651.499,411.365 651.166,411.365 649.5,416C 651.988,418.268 651.321,419.601 647.5,420C 647.167,421 646.833,422 646.5,423C 645.062,423.219 643.729,423.719 642.5,424.5C 641.968,426.741 640.635,428.241 638.5,429C 639.138,430.707 639.138,432.54 638.5,434.5C 637.127,434.657 635.793,434.49 634.5,434C 633.372,431.935 631.706,431.268 629.5,432C 630.753,436.347 629.92,436.514 627,432.5C 627.379,436.122 625.879,438.289 622.5,439C 624.137,440.951 625.637,440.784 627,438.5C 627.903,439.701 629.069,440.535 630.5,441C 629.833,441.667 629.167,442.333 628.5,443C 631.419,444.543 631.752,446.043 629.5,447.5C 622.52,442.516 615.854,437.183 609.5,431.5C 609.539,430.417 609.873,429.417 610.5,428.5C 608.49,427.935 606.824,426.935 605.5,425.5C 606.167,424.833 606.833,424.167 607.5,423.5C 606.359,422.575 606.359,421.741 607.5,421C 605.195,419.336 605.528,417.836 608.5,416.5C 609.425,417.641 610.259,417.641 611,416.5C 611.333,415.167 611.667,413.833 612,412.5C 612.096,415.451 612.929,418.118 614.5,420.5C 614.833,420.333 615.167,420.167 615.5,420C 614.833,418.667 614.167,417.333 613.5,416C 614.449,415.383 615.282,415.549 616,416.5C 616.29,418.044 616.956,419.377 618,420.5C 618.691,417.734 620.191,417.067 622.5,418.5C 622.998,417.397 623.331,416.397 623.5,415.5C 624.5,416.167 625.5,416.833 626.5,417.5C 626.694,415.93 626.694,414.43 626.5,413C 627,412.5 627.5,412 628,411.5C 630.324,412.807 631.657,414.807 632,417.5C 632.75,416.874 633.584,416.374 634.5,416C 634.943,414.482 634.276,413.315 632.5,412.5C 633.609,410.615 634.443,408.615 635,406.5C 635.333,407.167 635.667,407.833 636,408.5C 636.986,404.473 638.986,404.473 642,408.5C 643.188,407.437 643.688,406.103 643.5,404.5C 644.552,404.351 645.552,404.517 646.5,405C 647.833,405.667 647.833,406.333 646.5,407C 647.416,407.374 648.25,407.874 649,408.5C 648.852,407.175 649.018,406.008 649.5,405C 646.141,401.918 643.308,398.418 641,394.5C 640.667,394.833 640.333,395.167 640,395.5C 638.024,394.457 637.524,393.123 638.5,391.5C 640.042,392.747 641.542,392.747 643,391.5C 643.853,393.125 644.853,393.458 646,392.5C 647.121,395.836 649.287,397.836 652.5,398.5 Z"/></g>
<g><path style="opacity:1" fill="#215e6e" d="M 521.5,362.5 C 535.461,373.489 549.461,384.489 563.5,395.5C 563.56,396.043 563.893,396.376 564.5,396.5C 565.495,390.872 565.829,385.206 565.5,379.5C 575.167,379.5 584.833,379.5 594.5,379.5C 594.171,393.677 594.504,407.677 595.5,421.5C 599.906,425.246 604.573,428.58 609.5,431.5C 615.854,437.183 622.52,442.516 629.5,447.5C 633.311,450.25 636.978,453.25 640.5,456.5C 644.773,470.065 639.773,476.565 625.5,476C 623.677,475.003 622.01,473.836 620.5,472.5C 584.472,443.809 548.138,415.475 511.5,387.5C 475.106,415.36 439.106,443.693 403.5,472.5C 399.043,476.187 394.043,477.187 388.5,475.5C 385.45,473.451 383.117,470.784 381.5,467.5C 381.163,463.692 381.663,460.026 383,456.5C 399.355,443.636 415.521,430.636 431.5,417.5C 457.291,397.548 482.958,377.381 508.5,357C 510.167,356.333 511.833,356.333 513.5,357C 516.047,359.054 518.714,360.887 521.5,362.5 Z"/></g>
<g><path style="opacity:1" fill="#5f968f" d="M 565.5,379.5 C 565.829,385.206 565.495,390.872 564.5,396.5C 563.893,396.376 563.56,396.043 563.5,395.5C 564.167,390.167 564.833,384.833 565.5,379.5 Z"/></g>
<g><path style="opacity:1" fill="#74a7a6" d="M 479.5,333.5 C 482.466,336.059 482.133,338.059 478.5,339.5C 477.201,338.91 476.368,337.91 476,336.5C 474.782,338.019 473.282,339.186 471.5,340C 472.624,340.249 473.624,340.749 474.5,341.5C 474.167,341.833 473.833,342.167 473.5,342.5C 472.284,341.998 471.117,341.665 470,341.5C 469.25,342.126 468.416,342.626 467.5,343C 470.95,344.409 472.45,346.909 472,350.5C 467.988,347.771 467.488,348.437 470.5,352.5C 470.192,353.308 469.692,353.975 469,354.5C 468.781,353.062 468.281,351.729 467.5,350.5C 467.167,350.667 466.833,350.833 466.5,351C 466.411,352.716 466.744,354.549 467.5,356.5C 466.469,357.7 465.635,359.034 465,360.5C 464.29,359.027 463.124,358.36 461.5,358.5C 461.808,360.924 461.474,363.257 460.5,365.5C 457.905,362.933 455.572,363.266 453.5,366.5C 454.811,367.258 455.311,368.258 455,369.5C 452.266,369.367 449.599,369.367 447,369.5C 445.98,370.891 445.147,372.391 444.5,374C 443.216,374.684 442.049,374.517 441,373.5C 439.559,375.305 439.392,377.305 440.5,379.5C 438.396,379.201 436.396,379.534 434.5,380.5C 434.667,380.833 434.833,381.167 435,381.5C 437.405,380.726 439.905,380.226 442.5,380C 441.549,379.282 441.383,378.449 442,377.5C 443.319,379.25 443.819,381.25 443.5,383.5C 442.178,383.67 441.011,383.337 440,382.5C 438.513,384.985 436.679,387.152 434.5,389C 435.167,389.333 435.833,389.667 436.5,390C 435.167,390.667 435.167,391.333 436.5,392C 434.892,392.658 433.725,392.158 433,390.5C 432.086,391.654 431.253,391.487 430.5,390C 430.833,389.667 431.167,389.333 431.5,389C 429.081,387.07 427.414,387.403 426.5,390C 427.448,390.483 428.448,390.649 429.5,390.5C 429.649,391.552 429.483,392.552 429,393.5C 427.984,392.366 427.317,392.699 427,394.5C 426.275,392.842 425.108,392.342 423.5,393C 425.155,394.444 425.822,396.278 425.5,398.5C 424.5,398.5 423.5,398.5 422.5,398.5C 422.688,400.103 422.188,401.437 421,402.5C 419.414,401.624 417.914,400.624 416.5,399.5C 416.167,400 415.833,400.5 415.5,401C 416.272,402.221 417.272,403.221 418.5,404C 417.833,405.333 416.833,406.333 415.5,407C 415.833,407.333 416.167,407.667 416.5,408C 413.443,408.551 413.11,410.217 415.5,413C 409.056,412.905 409.056,414.239 415.5,417C 413.982,419.613 412.149,419.446 410,416.5C 409.576,412.81 408.742,412.643 407.5,416C 408.458,417.147 408.125,418.147 406.5,419C 407.308,419.308 407.975,419.808 408.5,420.5C 407.832,422.636 407.665,424.97 408,427.5C 407.667,427.833 407.333,428.167 407,428.5C 406.667,427.5 406.333,426.5 406,425.5C 403.372,427.126 401.039,429.126 399,431.5C 398.517,430.552 398.351,429.552 398.5,428.5C 396.408,428.561 394.908,429.561 394,431.5C 393.667,430.833 393.333,430.167 393,429.5C 392.465,433.531 390.299,436.198 386.5,437.5C 388.746,438.983 389.579,440.983 389,443.5C 387.16,442.167 386.66,442.334 387.5,444C 386.874,444.75 386.374,445.584 386,446.5C 385.259,445.359 384.425,445.359 383.5,446.5C 382.676,444.252 381.676,444.086 380.5,446C 379.911,447.873 380.578,449.54 382.5,451C 381,451.833 379.833,453 379,454.5C 377.334,453.66 377.167,454.16 378.5,456C 377.451,456.492 376.451,456.326 375.5,455.5C 374.672,456.415 373.672,457.081 372.5,457.5C 370.504,456.018 368.504,455.351 366.5,455.5C 365.063,458.044 363.563,458.044 362,455.5C 359.635,456.289 357.468,457.456 355.5,459C 356.783,462.048 358.449,462.215 360.5,459.5C 361.685,460.853 363.019,462.02 364.5,463C 362.888,463.72 361.388,463.554 360,462.5C 357.939,463.613 356.939,464.947 357,466.5C 351.236,463.935 350.402,465.101 354.5,470C 352.236,472.053 350.07,474.219 348,476.5C 347.667,476.167 347.333,475.833 347,475.5C 345.635,479.223 343.968,479.223 342,475.5C 340.654,478.249 339.32,478.583 338,476.5C 336.855,477.684 335.688,477.684 334.5,476.5C 336.692,462.37 341.026,449.036 347.5,436.5C 347.453,439.568 346.953,442.568 346,445.5C 343.219,449.06 342.219,453.06 343,457.5C 344.333,454.167 345.667,450.833 347,447.5C 349.109,446.965 349.609,445.965 348.5,444.5C 349.154,442.885 349.654,441.218 350,439.5C 350.471,441.246 351.138,442.913 352,444.5C 352.684,443.216 352.517,442.049 351.5,441C 351.833,440.833 352.167,440.667 352.5,440.5C 353.167,441.5 353.833,442.5 354.5,443.5C 356.152,441.554 356.985,439.554 357,437.5C 357.419,438.672 358.085,439.672 359,440.5C 359.667,439.167 360.333,439.167 361,440.5C 361.333,439.833 361.667,439.167 362,438.5C 363.74,439.716 364.74,441.382 365,443.5C 365.743,441.559 365.576,439.726 364.5,438C 366.456,438.222 368.29,439.055 370,440.5C 369.758,438.862 368.925,437.362 367.5,436C 368.996,435.493 370.163,435.993 371,437.5C 371.333,437.167 371.667,436.833 372,436.5C 372.415,438.291 373.415,439.624 375,440.5C 375.317,438.699 375.984,438.366 377,439.5C 379.336,438.708 379.836,437.375 378.5,435.5C 379.506,431.519 380.506,431.519 381.5,435.5C 381.833,435.333 382.167,435.167 382.5,435C 381.833,433.667 381.167,432.333 380.5,431C 381.876,428.457 383.043,428.291 384,430.5C 385.008,430.018 386.175,429.852 387.5,430C 387.167,429.667 386.833,429.333 386.5,429C 389.028,427.684 389.028,426.517 386.5,425.5C 388.829,424.229 389.995,422.229 390,419.5C 390.483,420.448 390.649,421.448 390.5,422.5C 391.873,422.657 393.207,422.49 394.5,422C 392.808,420.599 392.141,418.766 392.5,416.5C 395.026,416.081 397.359,415.914 399.5,416C 399.167,415.667 398.833,415.333 398.5,415C 400.204,413.364 401.704,411.531 403,409.5C 403.667,410.833 404.333,412.167 405,413.5C 406.042,410.196 404.875,408.029 401.5,407C 402.745,403.841 403.912,404.007 405,407.5C 407.167,405.167 409.333,402.833 411.5,400.5C 410.318,398.533 410.985,397.2 413.5,396.5C 412.5,395.167 411.5,393.833 410.5,392.5C 410.833,392.167 411.167,391.833 411.5,391.5C 413.948,392.803 415.448,394.803 416,397.5C 417.328,395.978 417.162,394.311 415.5,392.5C 416.737,391.719 417.737,390.719 418.5,389.5C 417.833,389.167 417.167,388.833 416.5,388.5C 418.187,387.432 419.854,387.599 421.5,389C 420.549,389.718 420.383,390.551 421,391.5C 422.214,389.951 423.714,388.785 425.5,388C 424.415,385.828 423.081,383.828 421.5,382C 422.552,380.881 423.719,380.381 425,380.5C 425.219,381.938 425.719,383.271 426.5,384.5C 426.833,384.333 427.167,384.167 427.5,384C 427.153,382.431 426.986,380.598 427,378.5C 428.716,382.223 430.716,382.223 433,378.5C 434.478,375.954 436.811,373.288 440,370.5C 439.502,368.473 439.669,366.473 440.5,364.5C 441.192,365.025 441.692,365.692 442,366.5C 442.967,365.322 443.467,363.989 443.5,362.5C 444.086,362.709 444.586,363.043 445,363.5C 444.43,361.307 444.764,359.307 446,357.5C 446.249,358.624 446.749,359.624 447.5,360.5C 449.115,359.846 450.782,359.346 452.5,359C 451.167,358.667 449.833,358.333 448.5,358C 451.167,356.667 451.167,355.333 448.5,354C 452.043,354.019 454.377,355.853 455.5,359.5C 455.588,358.078 455.588,356.578 455.5,355C 456.744,354.544 457.577,355.044 458,356.5C 458.249,355.376 458.749,354.376 459.5,353.5C 460.609,354.59 461.609,354.59 462.5,353.5C 461.998,352.284 461.665,351.117 461.5,350C 459.905,350.617 458.572,350.284 457.5,349C 458.833,348.333 458.833,347.667 457.5,347C 458.167,346.667 458.833,346.333 459.5,346C 458.234,345.691 457.067,345.191 456,344.5C 455.667,344.833 455.333,345.167 455,345.5C 454.781,344.062 454.281,342.729 453.5,341.5C 452.274,342.363 450.94,342.363 449.5,341.5C 459.028,337.441 469.028,334.774 479.5,333.5 Z"/></g>
<g><path style="opacity:1" fill="#a1c959" d="M 541.5,455.5 C 540.06,453.612 538.393,452.945 536.5,453.5C 531.931,454.317 529.264,456.983 528.5,461.5C 528.808,462.308 529.308,462.975 530,463.5C 530.196,461.714 531.029,460.381 532.5,459.5C 532.723,460.967 533.056,462.467 533.5,464C 532.671,465.816 531.837,467.649 531,469.5C 530.086,468.346 529.253,468.513 528.5,470C 530.285,471.593 530.452,473.093 529,474.5C 527.559,473.13 525.892,472.13 524,471.5C 522.157,474.598 520.157,477.598 518,480.5C 516.745,479.789 515.579,478.956 514.5,478C 515.258,476.636 514.758,475.469 513,474.5C 511.318,475.865 511.151,477.365 512.5,479C 511.256,479.456 510.423,478.956 510,477.5C 508,479.5 508,481.5 510,483.5C 511.75,480.006 513.584,479.839 515.5,483C 512.204,484.47 509.537,486.637 507.5,489.5C 508.833,490.5 510.167,491.5 511.5,492.5C 509.348,494.812 507.348,494.478 505.5,491.5C 504.468,493.04 503.135,493.54 501.5,493C 503.585,491.474 503.585,489.64 501.5,487.5C 500.571,488.689 500.238,490.022 500.5,491.5C 497.402,491.587 497.068,491.087 499.5,490C 498.833,489.667 498.167,489.333 497.5,489C 498.257,487.488 499.257,486.154 500.5,485C 496.422,480.919 494.589,481.753 495,487.5C 494.13,486.892 493.63,486.059 493.5,485C 494.33,483.535 494.496,482.035 494,480.5C 493.676,482.569 492.842,482.902 491.5,481.5C 490.831,479.369 490.165,477.369 489.5,475.5C 481.167,474.833 472.833,474.167 464.5,473.5C 479.108,456.058 494.941,439.724 512,424.5C 522.402,434.399 532.235,444.732 541.5,455.5 Z"/></g>
<g><path style="opacity:1" fill="#9abe85" d="M 671.5,426.5 C 679.087,440.342 684.421,455.009 687.5,470.5C 686.542,470.953 685.708,471.619 685,472.5C 683.984,471.366 683.317,471.699 683,473.5C 682.085,472.672 681.419,471.672 681,470.5C 679.921,472.394 678.587,472.727 677,471.5C 677,472.833 677,474.167 677,475.5C 675.992,475.018 674.825,474.852 673.5,475C 673.833,474.667 674.167,474.333 674.5,474C 673.333,473.5 672.5,472.667 672,471.5C 669.708,472.79 667.708,474.457 666,476.5C 664.927,475.72 663.76,475.887 662.5,477C 662.381,478.281 662.881,479.448 664,480.5C 664.483,479.552 664.649,478.552 664.5,477.5C 665.5,477.5 666.5,477.5 667.5,477.5C 667.5,478.833 667.5,480.167 667.5,481.5C 662.521,481.698 657.855,482.864 653.5,485C 655.061,485.318 656.228,486.151 657,487.5C 658.396,485.192 659.063,485.525 659,488.5C 656.884,489.69 654.884,491.023 653,492.5C 651.612,491.446 650.112,491.28 648.5,492C 649.308,492.308 649.975,492.808 650.5,493.5C 648.803,494.364 647.637,495.697 647,497.5C 646.667,497.167 646.333,496.833 646,496.5C 644.671,499.246 642.837,501.579 640.5,503.5C 639.28,504.711 638.113,504.711 637,503.5C 636.689,504.742 637.189,505.742 638.5,506.5C 636.851,507.148 635.518,508.148 634.5,509.5C 637.61,515.196 636.61,516.362 631.5,513C 634.028,512.331 634.028,511.498 631.5,510.5C 626.91,512.966 625.243,516.632 626.5,521.5C 626.833,520.833 627.167,520.167 627.5,519.5C 628.89,521.495 628.39,522.828 626,523.5C 625.055,523.095 624.388,522.428 624,521.5C 622.133,523.808 621.133,526.475 621,529.5C 618.929,528.636 617.262,527.303 616,525.5C 615.829,533.011 615.329,540.345 614.5,547.5C 614.5,522.833 614.5,498.167 614.5,473.5C 616.735,473.795 618.735,473.461 620.5,472.5C 622.01,473.836 623.677,475.003 625.5,476C 639.773,476.565 644.773,470.065 640.5,456.5C 641.989,455.713 643.823,455.713 646,456.5C 646.273,454.899 646.773,453.399 647.5,452C 647.043,451.586 646.709,451.086 646.5,450.5C 647.729,449.719 649.062,449.219 650.5,449C 649.833,448.667 649.167,448.333 648.5,448C 649.364,446.863 650.364,445.53 651.5,444C 650.833,443.667 650.167,443.333 649.5,443C 651.108,442.342 652.275,442.842 653,444.5C 653.249,443.376 653.749,442.376 654.5,441.5C 656.316,443.441 658.316,444.108 660.5,443.5C 661.36,441.069 663.027,439.736 665.5,439.5C 665.5,440.5 665.5,441.5 665.5,442.5C 667.963,442.781 670.13,443.781 672,445.5C 672.333,445.167 672.667,444.833 673,444.5C 672.923,445.738 673.089,446.738 673.5,447.5C 674.234,445.185 675.568,443.352 677.5,442C 676.274,440.365 674.941,438.865 673.5,437.5C 671.568,438.145 670.401,439.479 670,441.5C 666.949,440.224 664.782,437.557 663.5,433.5C 665.871,431.144 666.704,428.477 666,425.5C 667.488,427.83 669.321,428.164 671.5,426.5 Z"/></g>
<g><path style="opacity:1" fill="#77a9a3" d="M 485.5,332.5 C 489.514,332.334 493.514,332.501 497.5,333C 496.643,333.689 495.977,334.522 495.5,335.5C 496.737,336.281 497.737,337.281 498.5,338.5C 497.975,339.192 497.308,339.692 496.5,340C 497.987,342.22 499.654,344.22 501.5,346C 501.333,346.5 501.167,347 501,347.5C 499.365,346.151 497.865,346.318 496.5,348C 499.789,349.077 500.289,350.91 498,353.5C 497.333,352.167 496.333,351.167 495,350.5C 494.333,351.833 493.667,353.167 493,354.5C 492.086,353.346 491.253,353.513 490.5,355C 490.888,356.808 490.888,358.475 490.5,360C 488.275,360.239 487.942,359.405 489.5,357.5C 488.494,353.519 487.494,353.519 486.5,357.5C 484.167,356.5 483.5,357.167 484.5,359.5C 483.965,361.271 483.131,361.604 482,360.5C 480.691,362.891 479.691,362.891 479,360.5C 478.316,361.784 478.483,362.951 479.5,364C 478.833,364.333 478.167,364.667 477.5,365C 477.616,366.268 477.949,367.602 478.5,369C 477.874,369.75 477.374,370.584 477,371.5C 475.937,370.562 474.77,369.562 473.5,368.5C 471.998,369.083 470.665,369.916 469.5,371C 471.784,372.363 471.951,373.863 470,375.5C 468.98,374.109 468.147,372.609 467.5,371C 466.833,370.333 466.167,370.333 465.5,371C 467.422,372.46 468.089,374.127 467.5,376C 465.887,376.089 464.72,375.255 464,373.5C 463.801,375.402 462.967,376.902 461.5,378C 461.833,378.333 462.167,378.667 462.5,379C 461.324,380.914 460.324,380.748 459.5,378.5C 458.548,380.045 458.215,381.712 458.5,383.5C 454.874,385.603 452.708,384.603 452,380.5C 450.172,382.403 450.339,384.236 452.5,386C 451.531,387.758 450.364,388.258 449,387.5C 448.667,388.5 448.333,389.5 448,390.5C 446.582,387.999 445.582,388.332 445,391.5C 444.86,388.957 444.194,386.623 443,384.5C 443.984,386.598 443.651,388.598 442,390.5C 440.095,391.158 438.595,392.325 437.5,394C 438.253,395.487 439.086,395.654 440,394.5C 440.317,396.301 440.984,396.634 442,395.5C 442.667,396.5 442.667,397.5 442,398.5C 440.984,397.366 440.317,397.699 440,399.5C 438.983,396.972 437.816,396.972 436.5,399.5C 436.264,398.753 435.93,397.92 435.5,397C 434.5,396.333 433.5,396.333 432.5,397C 433.833,397.667 433.833,398.333 432.5,399C 433.167,399.333 433.833,399.667 434.5,400C 433.735,402.794 432.068,405.461 429.5,408C 430.167,408.333 430.833,408.667 431.5,409C 428.299,410.598 425.966,412.432 424.5,414.5C 423.833,414.167 423.167,413.833 422.5,413.5C 420.089,418.856 416.423,423.023 411.5,426C 413.235,426.651 414.902,426.485 416.5,425.5C 417.648,423.851 418.981,422.351 420.5,421C 423.911,420.883 426.411,419.383 428,416.5C 429.011,417.337 430.178,417.67 431.5,417.5C 415.521,430.636 399.355,443.636 383,456.5C 381.663,460.026 381.163,463.692 381.5,467.5C 381.44,468.043 381.107,468.376 380.5,468.5C 378.941,467.926 377.441,467.26 376,466.5C 374.895,469.417 373.895,472.417 373,475.5C 371.84,473.203 370.84,473.536 370,476.5C 368.506,475.253 367.006,475.253 365.5,476.5C 366.706,478.516 366.706,480.516 365.5,482.5C 364.757,481.092 363.923,479.759 363,478.5C 362.667,479.167 362.333,479.833 362,480.5C 361.632,479.09 360.799,478.09 359.5,477.5C 358.758,479.108 358.591,480.775 359,482.5C 357.23,481.724 355.397,481.89 353.5,483C 353.833,484 354.167,485 354.5,486C 352.191,486.756 350.191,486.256 348.5,484.5C 348.167,484.833 347.833,485.167 347.5,485.5C 351.136,486.936 351.303,488.603 348,490.5C 346.89,488.963 345.39,488.297 343.5,488.5C 343.383,490.484 344.05,492.15 345.5,493.5C 344.675,494.386 343.675,494.719 342.5,494.5C 342.36,496.124 343.027,497.29 344.5,498C 343.207,498.49 341.873,498.657 340.5,498.5C 340.329,496.007 341.329,494.174 343.5,493C 343,492.833 342.5,492.667 342,492.5C 339.863,493.638 338.029,495.138 336.5,497C 336.833,497.333 337.167,497.667 337.5,498C 335.333,498.833 333.833,500.333 333,502.5C 332.79,500.942 332.29,499.609 331.5,498.5C 331.439,490.891 332.439,483.558 334.5,476.5C 335.688,477.684 336.855,477.684 338,476.5C 339.32,478.583 340.654,478.249 342,475.5C 343.968,479.223 345.635,479.223 347,475.5C 347.333,475.833 347.667,476.167 348,476.5C 350.07,474.219 352.236,472.053 354.5,470C 350.402,465.101 351.236,463.935 357,466.5C 356.939,464.947 357.939,463.613 360,462.5C 361.388,463.554 362.888,463.72 364.5,463C 363.019,462.02 361.685,460.853 360.5,459.5C 358.449,462.215 356.783,462.048 355.5,459C 357.468,457.456 359.635,456.289 362,455.5C 363.563,458.044 365.063,458.044 366.5,455.5C 368.504,455.351 370.504,456.018 372.5,457.5C 373.672,457.081 374.672,456.415 375.5,455.5C 376.451,456.326 377.451,456.492 378.5,456C 377.167,454.16 377.334,453.66 379,454.5C 379.833,453 381,451.833 382.5,451C 380.578,449.54 379.911,447.873 380.5,446C 381.676,444.086 382.676,444.252 383.5,446.5C 384.425,445.359 385.259,445.359 386,446.5C 386.374,445.584 386.874,444.75 387.5,444C 386.66,442.334 387.16,442.167 389,443.5C 389.579,440.983 388.746,438.983 386.5,437.5C 390.299,436.198 392.465,433.531 393,429.5C 393.333,430.167 393.667,430.833 394,431.5C 394.908,429.561 396.408,428.561 398.5,428.5C 398.351,429.552 398.517,430.552 399,431.5C 401.039,429.126 403.372,427.126 406,425.5C 406.333,426.5 406.667,427.5 407,428.5C 407.333,428.167 407.667,427.833 408,427.5C 407.665,424.97 407.832,422.636 408.5,420.5C 407.975,419.808 407.308,419.308 406.5,419C 408.125,418.147 408.458,417.147 407.5,416C 408.742,412.643 409.576,412.81 410,416.5C 412.149,419.446 413.982,419.613 415.5,417C 409.056,414.239 409.056,412.905 415.5,413C 413.11,410.217 413.443,408.551 416.5,408C 416.167,407.667 415.833,407.333 415.5,407C 416.833,406.333 417.833,405.333 418.5,404C 417.272,403.221 416.272,402.221 415.5,401C 415.833,400.5 416.167,400 416.5,399.5C 417.914,400.624 419.414,401.624 421,402.5C 422.188,401.437 422.688,400.103 422.5,398.5C 423.5,398.5 424.5,398.5 425.5,398.5C 425.822,396.278 425.155,394.444 423.5,393C 425.108,392.342 426.275,392.842 427,394.5C 427.317,392.699 427.984,392.366 429,393.5C 429.483,392.552 429.649,391.552 429.5,390.5C 428.448,390.649 427.448,390.483 426.5,390C 427.414,387.403 429.081,387.07 431.5,389C 431.167,389.333 430.833,389.667 430.5,390C 431.253,391.487 432.086,391.654 433,390.5C 433.725,392.158 434.892,392.658 436.5,392C 435.167,391.333 435.167,390.667 436.5,390C 435.833,389.667 435.167,389.333 434.5,389C 436.679,387.152 438.513,384.985 440,382.5C 441.011,383.337 442.178,383.67 443.5,383.5C 443.819,381.25 443.319,379.25 442,377.5C 441.383,378.449 441.549,379.282 442.5,380C 439.905,380.226 437.405,380.726 435,381.5C 434.833,381.167 434.667,380.833 434.5,380.5C 436.396,379.534 438.396,379.201 440.5,379.5C 439.392,377.305 439.559,375.305 441,373.5C 442.049,374.517 443.216,374.684 444.5,374C 445.147,372.391 445.98,370.891 447,369.5C 449.599,369.367 452.266,369.367 455,369.5C 455.311,368.258 454.811,367.258 453.5,366.5C 455.572,363.266 457.905,362.933 460.5,365.5C 461.474,363.257 461.808,360.924 461.5,358.5C 463.124,358.36 464.29,359.027 465,360.5C 465.635,359.034 466.469,357.7 467.5,356.5C 466.744,354.549 466.411,352.716 466.5,351C 466.833,350.833 467.167,350.667 467.5,350.5C 468.281,351.729 468.781,353.062 469,354.5C 469.692,353.975 470.192,353.308 470.5,352.5C 467.488,348.437 467.988,347.771 472,350.5C 472.45,346.909 470.95,344.409 467.5,343C 468.416,342.626 469.25,342.126 470,341.5C 471.117,341.665 472.284,341.998 473.5,342.5C 473.833,342.167 474.167,341.833 474.5,341.5C 473.624,340.749 472.624,340.249 471.5,340C 473.282,339.186 474.782,338.019 476,336.5C 476.368,337.91 477.201,338.91 478.5,339.5C 482.133,338.059 482.466,336.059 479.5,333.5C 481.379,332.659 483.379,332.325 485.5,332.5 Z"/></g>
<g><path style="opacity:1" fill="#7baaa0" d="M 381.5,467.5 C 383.117,470.784 385.45,473.451 388.5,475.5C 387.549,476.919 387.216,478.585 387.5,480.5C 386.178,480.67 385.011,480.337 384,479.5C 383.5,480.667 382.667,481.5 381.5,482C 382.76,483.113 383.927,483.28 385,482.5C 385.847,485.49 384.68,486.824 381.5,486.5C 381.719,485.325 381.386,484.325 380.5,483.5C 379.024,485.571 377.024,486.571 374.5,486.5C 374.649,487.552 374.483,488.552 374,489.5C 370.647,486.822 367.481,487.155 364.5,490.5C 365.981,491.48 367.315,492.647 368.5,494C 366.649,495.684 364.982,497.517 363.5,499.5C 362.713,498.758 362.047,497.925 361.5,497C 362.576,495.274 362.743,493.441 362,491.5C 361.5,492 361,492.5 360.5,493C 361.567,495.694 360.567,497.527 357.5,498.5C 358.609,499.965 358.109,500.965 356,501.5C 355.667,500.833 355.333,500.167 355,499.5C 354.259,500.641 353.425,500.641 352.5,499.5C 351.667,500.5 350.833,501.5 350,502.5C 349.195,500.099 348.362,500.266 347.5,503C 349.481,503.605 349.815,504.605 348.5,506C 349.471,507.204 350.471,507.704 351.5,507.5C 348.246,508.917 345.746,511.25 344,514.5C 343,511.833 342,511.833 341,514.5C 340.667,513.5 340.333,512.5 340,511.5C 339.32,513.976 340.153,515.809 342.5,517C 341.576,517.85 341.576,518.85 342.5,520C 342.167,520.5 341.833,521 341.5,521.5C 340.004,517.665 339.004,517.665 338.5,521.5C 336.876,521.64 335.71,520.973 335,519.5C 334.5,520 334,520.5 333.5,521C 335.63,524.996 335.797,529.163 334,533.5C 333.617,534.056 333.117,534.389 332.5,534.5C 330.529,522.488 330.195,510.488 331.5,498.5C 332.29,499.609 332.79,500.942 333,502.5C 333.833,500.333 335.333,498.833 337.5,498C 337.167,497.667 336.833,497.333 336.5,497C 338.029,495.138 339.863,493.638 342,492.5C 342.5,492.667 343,492.833 343.5,493C 341.329,494.174 340.329,496.007 340.5,498.5C 341.873,498.657 343.207,498.49 344.5,498C 343.027,497.29 342.36,496.124 342.5,494.5C 343.675,494.719 344.675,494.386 345.5,493.5C 344.05,492.15 343.383,490.484 343.5,488.5C 345.39,488.297 346.89,488.963 348,490.5C 351.303,488.603 351.136,486.936 347.5,485.5C 347.833,485.167 348.167,484.833 348.5,484.5C 350.191,486.256 352.191,486.756 354.5,486C 354.167,485 353.833,484 353.5,483C 355.397,481.89 357.23,481.724 359,482.5C 358.591,480.775 358.758,479.108 359.5,477.5C 360.799,478.09 361.632,479.09 362,480.5C 362.333,479.833 362.667,479.167 363,478.5C 363.923,479.759 364.757,481.092 365.5,482.5C 366.706,480.516 366.706,478.516 365.5,476.5C 367.006,475.253 368.506,475.253 370,476.5C 370.84,473.536 371.84,473.203 373,475.5C 373.895,472.417 374.895,469.417 376,466.5C 377.441,467.26 378.941,467.926 380.5,468.5C 381.107,468.376 381.44,468.043 381.5,467.5 Z"/></g>
<g><path style="opacity:1" fill="#9fbe7f" d="M 687.5,470.5 C 689.248,475.315 690.248,480.315 690.5,485.5C 688.2,487.075 687.367,489.075 688,491.5C 686.984,490.366 686.317,490.699 686,492.5C 685.085,491.672 684.419,490.672 684,489.5C 683.028,491.305 681.861,492.972 680.5,494.5C 681.025,495.192 681.692,495.692 682.5,496C 680.374,496.898 678.374,498.065 676.5,499.5C 674.632,499.054 672.799,498.721 671,498.5C 671.453,500.454 671.62,502.287 671.5,504C 668.91,506.289 667.077,505.789 666,502.5C 664.956,503.623 664.29,504.956 664,506.5C 663.586,506.043 663.086,505.709 662.5,505.5C 661.01,507.126 659.51,508.792 658,510.5C 657.667,510.167 657.333,509.833 657,509.5C 656.773,512.06 655.44,513.726 653,514.5C 652.517,515.448 652.351,516.448 652.5,517.5C 651.178,517.33 650.011,517.663 649,518.5C 648.667,520.833 648.333,523.167 648,525.5C 647,524.167 646,524.167 645,525.5C 644.167,523 643,522.833 641.5,525C 643.994,527.244 643.994,529.577 641.5,532C 641.833,532.333 642.167,532.667 642.5,533C 640.687,532.954 639.021,533.12 637.5,533.5C 637.709,534.086 638.043,534.586 638.5,535C 637.299,535.903 636.465,537.069 636,538.5C 635.086,537.346 634.253,537.513 633.5,539C 633.665,540.117 633.998,541.284 634.5,542.5C 632.838,543.327 631.505,544.493 630.5,546C 631.5,547 632.5,548 633.5,549C 629.611,551.738 629.944,553.405 634.5,554C 635.333,553.167 636.167,552.333 637,551.5C 637.617,552.449 637.451,553.282 636.5,554C 638.861,554.197 640.528,555.364 641.5,557.5C 642.803,556.282 643.803,556.615 644.5,558.5C 647.28,557.694 647.947,558.694 646.5,561.5C 638.667,561.167 631.5,563.167 625,567.5C 620.319,565.815 615.485,565.148 610.5,565.5C 611.209,564.596 612.209,564.263 613.5,564.5C 614.489,559.025 614.822,553.358 614.5,547.5C 615.329,540.345 615.829,533.011 616,525.5C 617.262,527.303 618.929,528.636 621,529.5C 621.133,526.475 622.133,523.808 624,521.5C 624.388,522.428 625.055,523.095 626,523.5C 628.39,522.828 628.89,521.495 627.5,519.5C 627.167,520.167 626.833,520.833 626.5,521.5C 625.243,516.632 626.91,512.966 631.5,510.5C 634.028,511.498 634.028,512.331 631.5,513C 636.61,516.362 637.61,515.196 634.5,509.5C 635.518,508.148 636.851,507.148 638.5,506.5C 637.189,505.742 636.689,504.742 637,503.5C 638.113,504.711 639.28,504.711 640.5,503.5C 642.837,501.579 644.671,499.246 646,496.5C 646.333,496.833 646.667,497.167 647,497.5C 647.637,495.697 648.803,494.364 650.5,493.5C 649.975,492.808 649.308,492.308 648.5,492C 650.112,491.28 651.612,491.446 653,492.5C 654.884,491.023 656.884,489.69 659,488.5C 659.063,485.525 658.396,485.192 657,487.5C 656.228,486.151 655.061,485.318 653.5,485C 657.855,482.864 662.521,481.698 667.5,481.5C 667.5,480.167 667.5,478.833 667.5,477.5C 666.5,477.5 665.5,477.5 664.5,477.5C 664.649,478.552 664.483,479.552 664,480.5C 662.881,479.448 662.381,478.281 662.5,477C 663.76,475.887 664.927,475.72 666,476.5C 667.708,474.457 669.708,472.79 672,471.5C 672.5,472.667 673.333,473.5 674.5,474C 674.167,474.333 673.833,474.667 673.5,475C 674.825,474.852 675.992,475.018 677,475.5C 677,474.167 677,472.833 677,471.5C 678.587,472.727 679.921,472.394 681,470.5C 681.419,471.672 682.085,472.672 683,473.5C 683.317,471.699 683.984,471.366 685,472.5C 685.708,471.619 686.542,470.953 687.5,470.5 Z"/></g>
<g><path style="opacity:1" fill="#d3e4b5" d="M 464.5,473.5 C 472.833,474.167 481.167,474.833 489.5,475.5C 480.808,475.831 472.141,475.498 463.5,474.5C 463.624,473.893 463.957,473.56 464.5,473.5 Z"/></g>
<g><path style="opacity:1" fill="#7fac9f" d="M 403.5,472.5 C 404.919,473.451 406.585,473.784 408.5,473.5C 408.5,473.833 408.5,474.167 408.5,474.5C 408.5,479.167 408.5,483.833 408.5,488.5C 408.167,488.5 407.833,488.5 407.5,488.5C 407.785,486.712 407.452,485.045 406.5,483.5C 404.362,484.429 403.196,486.096 403,488.5C 401.667,487.833 400.667,486.833 400,485.5C 398.84,487.797 397.84,487.464 397,484.5C 394.848,486.277 395.015,487.777 397.5,489C 397,489.5 396.5,490 396,490.5C 395.044,489.421 394.211,488.255 393.5,487C 391.926,486.301 390.593,486.635 389.5,488C 390.167,488.333 390.833,488.667 391.5,489C 390.167,489.667 390.167,490.333 391.5,491C 390.167,491.333 388.833,491.667 387.5,492C 388.861,495.983 388.028,496.817 385,494.5C 382.898,495.038 382.065,496.038 382.5,497.5C 380.729,496.965 380.396,496.131 381.5,495C 376.29,496.098 376.29,497.598 381.5,499.5C 381.333,499.833 381.167,500.167 381,500.5C 379.455,500.634 377.788,500.3 376,499.5C 374.189,500.424 374.355,501.257 376.5,502C 374.782,502.346 373.115,502.846 371.5,503.5C 370.501,499.763 369.168,499.763 367.5,503.5C 368.685,504.853 370.019,506.02 371.5,507C 369.307,506.43 367.307,506.764 365.5,508C 366.308,508.308 366.975,508.808 367.5,509.5C 364.585,510.704 362.419,512.704 361,515.5C 360.915,513.915 360.749,512.582 360.5,511.5C 359.359,513.421 359.192,515.421 360,517.5C 364.038,515.97 364.538,516.804 361.5,520C 359.5,520.333 357.5,520.667 355.5,521C 358.276,522.779 357.943,523.779 354.5,524C 355.167,524.333 355.833,524.667 356.5,525C 352.544,526.114 352.544,526.947 356.5,527.5C 356.741,530.999 355.908,531.332 354,528.5C 351.626,531.288 350.293,530.954 350,527.5C 349.5,528.667 348.667,529.5 347.5,530C 347.616,531.268 347.949,532.602 348.5,534C 346.888,534.72 345.388,534.554 344,533.5C 341.98,537.223 341.48,540.723 342.5,544C 341.833,544.333 341.167,544.667 340.5,545C 341.833,545.333 343.167,545.667 344.5,546C 343.66,547.666 344.16,547.833 346,546.5C 346.866,548.896 346.366,549.563 344.5,548.5C 343.252,549.04 342.085,549.707 341,550.5C 340.517,549.552 340.351,548.552 340.5,547.5C 339.178,547.33 338.011,547.663 337,548.5C 336.667,547.5 336.333,546.5 336,545.5C 335.722,546.416 335.222,547.082 334.5,547.5C 333.51,543.228 332.844,538.894 332.5,534.5C 333.117,534.389 333.617,534.056 334,533.5C 335.797,529.163 335.63,524.996 333.5,521C 334,520.5 334.5,520 335,519.5C 335.71,520.973 336.876,521.64 338.5,521.5C 339.004,517.665 340.004,517.665 341.5,521.5C 341.833,521 342.167,520.5 342.5,520C 341.576,518.85 341.576,517.85 342.5,517C 340.153,515.809 339.32,513.976 340,511.5C 340.333,512.5 340.667,513.5 341,514.5C 342,511.833 343,511.833 344,514.5C 345.746,511.25 348.246,508.917 351.5,507.5C 350.471,507.704 349.471,507.204 348.5,506C 349.815,504.605 349.481,503.605 347.5,503C 348.362,500.266 349.195,500.099 350,502.5C 350.833,501.5 351.667,500.5 352.5,499.5C 353.425,500.641 354.259,500.641 355,499.5C 355.333,500.167 355.667,500.833 356,501.5C 358.109,500.965 358.609,499.965 357.5,498.5C 360.567,497.527 361.567,495.694 360.5,493C 361,492.5 361.5,492 362,491.5C 362.743,493.441 362.576,495.274 361.5,497C 362.047,497.925 362.713,498.758 363.5,499.5C 364.982,497.517 366.649,495.684 368.5,494C 367.315,492.647 365.981,491.48 364.5,490.5C 367.481,487.155 370.647,486.822 374,489.5C 374.483,488.552 374.649,487.552 374.5,486.5C 377.024,486.571 379.024,485.571 380.5,483.5C 381.386,484.325 381.719,485.325 381.5,486.5C 384.68,486.824 385.847,485.49 385,482.5C 383.927,483.28 382.76,483.113 381.5,482C 382.667,481.5 383.5,480.667 384,479.5C 385.011,480.337 386.178,480.67 387.5,480.5C 387.216,478.585 387.549,476.919 388.5,475.5C 394.043,477.187 399.043,476.187 403.5,472.5 Z"/></g>
<g><path style="opacity:1" fill="#a3c85b" d="M 541.5,455.5 C 548.182,461.182 554.182,467.515 559.5,474.5C 550.859,475.498 542.192,475.831 533.5,475.5C 531.31,499.048 521.31,518.548 503.5,534C 484.895,547.095 464.228,555.095 441.5,558C 424.412,559.261 407.412,561.261 390.5,564C 379.006,566.326 368.34,570.493 358.5,576.5C 356.049,577.411 353.715,578.244 351.5,579C 362.572,567.796 375.572,559.629 390.5,554.5C 406.603,549.845 422.936,546.011 439.5,543C 472.816,532.88 489.483,510.38 489.5,475.5C 490.165,477.369 490.831,479.369 491.5,481.5C 492.842,482.902 493.676,482.569 494,480.5C 494.496,482.035 494.33,483.535 493.5,485C 493.63,486.059 494.13,486.892 495,487.5C 494.589,481.753 496.422,480.919 500.5,485C 499.257,486.154 498.257,487.488 497.5,489C 498.167,489.333 498.833,489.667 499.5,490C 497.068,491.087 497.402,491.587 500.5,491.5C 500.238,490.022 500.571,488.689 501.5,487.5C 503.585,489.64 503.585,491.474 501.5,493C 503.135,493.54 504.468,493.04 505.5,491.5C 507.348,494.478 509.348,494.812 511.5,492.5C 510.167,491.5 508.833,490.5 507.5,489.5C 509.537,486.637 512.204,484.47 515.5,483C 513.584,479.839 511.75,480.006 510,483.5C 508,481.5 508,479.5 510,477.5C 510.423,478.956 511.256,479.456 512.5,479C 511.151,477.365 511.318,475.865 513,474.5C 514.758,475.469 515.258,476.636 514.5,478C 515.579,478.956 516.745,479.789 518,480.5C 520.157,477.598 522.157,474.598 524,471.5C 525.892,472.13 527.559,473.13 529,474.5C 530.452,473.093 530.285,471.593 528.5,470C 529.253,468.513 530.086,468.346 531,469.5C 531.837,467.649 532.671,465.816 533.5,464C 533.056,462.467 532.723,460.967 532.5,459.5C 531.029,460.381 530.196,461.714 530,463.5C 529.308,462.975 528.808,462.308 528.5,461.5C 529.264,456.983 531.931,454.317 536.5,453.5C 538.393,452.945 540.06,453.612 541.5,455.5 Z"/></g>
<g><path style="opacity:1" fill="#81af9d" d="M 407.5,488.5 C 407.657,489.873 407.49,491.207 407,492.5C 406.667,492.167 406.333,491.833 406,491.5C 405.086,495.185 404.419,494.852 404,490.5C 402.383,491.536 402.216,492.703 403.5,494C 399.961,494.336 397.794,496.169 397,499.5C 396.016,497.205 395.183,497.539 394.5,500.5C 393.624,501.251 392.624,501.751 391.5,502C 392.167,502.333 392.833,502.667 393.5,503C 392.167,504 392.167,505 393.5,506C 392.391,506.638 391.225,507.138 390,507.5C 388.7,506.293 387.2,505.626 385.5,505.5C 385.786,507.277 386.453,508.944 387.5,510.5C 387.167,511.167 386.833,511.833 386.5,512.5C 384.941,511.926 383.441,511.26 382,510.5C 381.751,511.624 381.251,512.624 380.5,513.5C 378.685,513.354 376.685,513.188 374.5,513C 374.167,513.333 373.833,513.667 373.5,514C 374.738,513.923 375.738,514.089 376.5,514.5C 373.88,516.901 371.38,516.901 369,514.5C 368.691,515.766 368.191,516.933 367.5,518C 368.634,519.016 368.301,519.683 366.5,520C 367.872,521.242 368.872,522.742 369.5,524.5C 366.809,526.016 364.809,528.182 363.5,531C 362.5,531.333 361.5,531.667 360.5,532C 361.601,534.292 360.768,535.792 358,536.5C 355.957,535.421 354.624,533.754 354,531.5C 353.009,532.939 351.676,533.939 350,534.5C 349.647,535.672 349.813,536.838 350.5,538C 349.978,538.95 349.311,539.784 348.5,540.5C 349.902,541.842 349.569,542.676 347.5,543C 348.448,543.483 349.448,543.649 350.5,543.5C 348.719,547.037 346.719,550.537 344.5,554C 345.333,554.833 346.167,555.667 347,556.5C 347.888,553.474 349.555,550.474 352,547.5C 352.75,548.126 353.584,548.626 354.5,549C 350.522,551.412 350.188,553.745 353.5,556C 351.442,557.49 350.109,559.49 349.5,562C 352.167,563 352.167,564 349.5,565C 349.833,565.333 350.167,565.667 350.5,566C 347.568,568.285 344.902,570.785 342.5,573.5C 338.724,565.254 336.057,556.587 334.5,547.5C 335.222,547.082 335.722,546.416 336,545.5C 336.333,546.5 336.667,547.5 337,548.5C 338.011,547.663 339.178,547.33 340.5,547.5C 340.351,548.552 340.517,549.552 341,550.5C 342.085,549.707 343.252,549.04 344.5,548.5C 346.366,549.563 346.866,548.896 346,546.5C 344.16,547.833 343.66,547.666 344.5,546C 343.167,545.667 341.833,545.333 340.5,545C 341.167,544.667 341.833,544.333 342.5,544C 341.48,540.723 341.98,537.223 344,533.5C 345.388,534.554 346.888,534.72 348.5,534C 347.949,532.602 347.616,531.268 347.5,530C 348.667,529.5 349.5,528.667 350,527.5C 350.293,530.954 351.626,531.288 354,528.5C 355.908,531.332 356.741,530.999 356.5,527.5C 352.544,526.947 352.544,526.114 356.5,525C 355.833,524.667 355.167,524.333 354.5,524C 357.943,523.779 358.276,522.779 355.5,521C 357.5,520.667 359.5,520.333 361.5,520C 364.538,516.804 364.038,515.97 360,517.5C 359.192,515.421 359.359,513.421 360.5,511.5C 360.749,512.582 360.915,513.915 361,515.5C 362.419,512.704 364.585,510.704 367.5,509.5C 366.975,508.808 366.308,508.308 365.5,508C 367.307,506.764 369.307,506.43 371.5,507C 370.019,506.02 368.685,504.853 367.5,503.5C 369.168,499.763 370.501,499.763 371.5,503.5C 373.115,502.846 374.782,502.346 376.5,502C 374.355,501.257 374.189,500.424 376,499.5C 377.788,500.3 379.455,500.634 381,500.5C 381.167,500.167 381.333,499.833 381.5,499.5C 376.29,497.598 376.29,496.098 381.5,495C 380.396,496.131 380.729,496.965 382.5,497.5C 382.065,496.038 382.898,495.038 385,494.5C 388.028,496.817 388.861,495.983 387.5,492C 388.833,491.667 390.167,491.333 391.5,491C 390.167,490.333 390.167,489.667 391.5,489C 390.833,488.667 390.167,488.333 389.5,488C 390.593,486.635 391.926,486.301 393.5,487C 394.211,488.255 395.044,489.421 396,490.5C 396.5,490 397,489.5 397.5,489C 395.015,487.777 394.848,486.277 397,484.5C 397.84,487.464 398.84,487.797 400,485.5C 400.667,486.833 401.667,487.833 403,488.5C 403.196,486.096 404.362,484.429 406.5,483.5C 407.452,485.045 407.785,486.712 407.5,488.5 Z"/></g>
<g><path style="opacity:1" fill="#3b6a70" d="M 589.5,474.5 C 589.5,474.167 589.5,473.833 589.5,473.5C 597.833,473.5 606.167,473.5 614.5,473.5C 614.5,498.167 614.5,522.833 614.5,547.5C 614.822,553.358 614.489,559.025 613.5,564.5C 613.5,534.5 613.5,504.5 613.5,474.5C 605.5,474.5 597.5,474.5 589.5,474.5 Z"/></g>
<g><path style="opacity:1" fill="#215b6b" d="M 589.5,474.5 C 597.5,474.5 605.5,474.5 613.5,474.5C 613.5,504.5 613.5,534.5 613.5,564.5C 612.209,564.263 611.209,564.596 610.5,565.5C 603.11,565.862 597.11,568.862 592.5,574.5C 591.5,574.833 590.833,575.5 590.5,576.5C 589.502,542.671 589.168,508.671 589.5,474.5 Z"/></g>
<g><path style="opacity:1" fill="#5c8691" d="M 408.5,474.5 C 408.5,474.167 408.5,473.833 408.5,473.5C 417.167,473.5 425.833,473.5 434.5,473.5C 434.831,494.34 434.497,515.007 433.5,535.5C 433.5,515.167 433.5,494.833 433.5,474.5C 425.5,474.5 417.5,474.5 409.5,474.5C 409.167,474.5 408.833,474.5 408.5,474.5 Z"/></g>
<g><path style="opacity:1" fill="#a4c079" d="M 690.5,485.5 C 693.97,509.504 692.637,533.171 686.5,556.5C 685.948,554.669 685.948,553.003 686.5,551.5C 686.154,550.304 685.654,550.304 685,551.5C 683.866,548.702 682.032,546.536 679.5,545C 680.604,543.869 680.271,543.035 678.5,542.5C 677.808,543.025 677.308,543.692 677,544.5C 676.667,543.167 676.333,541.833 676,540.5C 675.3,542.032 674.134,543.032 672.5,543.5C 671.41,542.273 670.076,541.44 668.5,541C 668.64,539.736 668.64,538.569 668.5,537.5C 666.102,538.898 664.435,540.898 663.5,543.5C 662.914,543.291 662.414,542.957 662,542.5C 661.333,543.833 661.333,545.167 662,546.5C 662.718,545.549 663.551,545.383 664.5,546C 663.167,546.667 663.167,547.333 664.5,548C 662.567,548.783 661.067,548.283 660,546.5C 658.007,548.406 658.507,549.573 661.5,550C 660.552,550.483 659.552,550.649 658.5,550.5C 658.33,551.822 658.663,552.989 659.5,554C 655.622,555.766 655.622,557.599 659.5,559.5C 660.086,559.291 660.586,558.957 661,558.5C 661.456,559.744 660.956,560.577 659.5,561C 659.833,561.333 660.167,561.667 660.5,562C 659.5,562.667 658.5,562.667 657.5,562C 654.96,558.611 651.96,557.945 648.5,560C 649.167,560.333 649.833,560.667 650.5,561C 650.272,561.399 649.938,561.565 649.5,561.5C 648.5,561.5 647.5,561.5 646.5,561.5C 647.947,558.694 647.28,557.694 644.5,558.5C 643.803,556.615 642.803,556.282 641.5,557.5C 640.528,555.364 638.861,554.197 636.5,554C 637.451,553.282 637.617,552.449 637,551.5C 636.167,552.333 635.333,553.167 634.5,554C 629.944,553.405 629.611,551.738 633.5,549C 632.5,548 631.5,547 630.5,546C 631.505,544.493 632.838,543.327 634.5,542.5C 633.998,541.284 633.665,540.117 633.5,539C 634.253,537.513 635.086,537.346 636,538.5C 636.465,537.069 637.299,535.903 638.5,535C 638.043,534.586 637.709,534.086 637.5,533.5C 639.021,533.12 640.687,532.954 642.5,533C 642.167,532.667 641.833,532.333 641.5,532C 643.994,529.577 643.994,527.244 641.5,525C 643,522.833 644.167,523 645,525.5C 646,524.167 647,524.167 648,525.5C 648.333,523.167 648.667,520.833 649,518.5C 650.011,517.663 651.178,517.33 652.5,517.5C 652.351,516.448 652.517,515.448 653,514.5C 655.44,513.726 656.773,512.06 657,509.5C 657.333,509.833 657.667,510.167 658,510.5C 659.51,508.792 661.01,507.126 662.5,505.5C 663.086,505.709 663.586,506.043 664,506.5C 664.29,504.956 664.956,503.623 666,502.5C 667.077,505.789 668.91,506.289 671.5,504C 671.62,502.287 671.453,500.454 671,498.5C 672.799,498.721 674.632,499.054 676.5,499.5C 678.374,498.065 680.374,496.898 682.5,496C 681.692,495.692 681.025,495.192 680.5,494.5C 681.861,492.972 683.028,491.305 684,489.5C 684.419,490.672 685.085,491.672 686,492.5C 686.317,490.699 686.984,490.366 688,491.5C 687.367,489.075 688.2,487.075 690.5,485.5 Z"/></g>
<g><path style="opacity:1" fill="#1f5c6b" d="M 409.5,474.5 C 417.5,474.5 425.5,474.5 433.5,474.5C 433.5,494.833 433.5,515.167 433.5,535.5C 427.009,537.101 420.343,538.434 413.5,539.5C 412.167,539.5 410.833,539.5 409.5,539.5C 409.5,517.833 409.5,496.167 409.5,474.5 Z"/></g>
<g><path style="opacity:1" fill="#85b19c" d="M 407.5,488.5 C 407.833,488.5 408.167,488.5 408.5,488.5C 408.5,505.833 408.5,523.167 408.5,540.5C 399.745,542.1 391.412,544.767 383.5,548.5C 367.781,554.114 354.281,563.114 343,575.5C 342.536,574.906 342.369,574.239 342.5,573.5C 344.902,570.785 347.568,568.285 350.5,566C 350.167,565.667 349.833,565.333 349.5,565C 352.167,564 352.167,563 349.5,562C 350.109,559.49 351.442,557.49 353.5,556C 350.188,553.745 350.522,551.412 354.5,549C 353.584,548.626 352.75,548.126 352,547.5C 349.555,550.474 347.888,553.474 347,556.5C 346.167,555.667 345.333,554.833 344.5,554C 346.719,550.537 348.719,547.037 350.5,543.5C 349.448,543.649 348.448,543.483 347.5,543C 349.569,542.676 349.902,541.842 348.5,540.5C 349.311,539.784 349.978,538.95 350.5,538C 349.813,536.838 349.647,535.672 350,534.5C 351.676,533.939 353.009,532.939 354,531.5C 354.624,533.754 355.957,535.421 358,536.5C 360.768,535.792 361.601,534.292 360.5,532C 361.5,531.667 362.5,531.333 363.5,531C 364.809,528.182 366.809,526.016 369.5,524.5C 368.872,522.742 367.872,521.242 366.5,520C 368.301,519.683 368.634,519.016 367.5,518C 368.191,516.933 368.691,515.766 369,514.5C 371.38,516.901 373.88,516.901 376.5,514.5C 375.738,514.089 374.738,513.923 373.5,514C 373.833,513.667 374.167,513.333 374.5,513C 376.685,513.188 378.685,513.354 380.5,513.5C 381.251,512.624 381.751,511.624 382,510.5C 383.441,511.26 384.941,511.926 386.5,512.5C 386.833,511.833 387.167,511.167 387.5,510.5C 386.453,508.944 385.786,507.277 385.5,505.5C 387.2,505.626 388.7,506.293 390,507.5C 391.225,507.138 392.391,506.638 393.5,506C 392.167,505 392.167,504 393.5,503C 392.833,502.667 392.167,502.333 391.5,502C 392.624,501.751 393.624,501.251 394.5,500.5C 395.183,497.539 396.016,497.205 397,499.5C 397.794,496.169 399.961,494.336 403.5,494C 402.216,492.703 402.383,491.536 404,490.5C 404.419,494.852 405.086,495.185 406,491.5C 406.333,491.833 406.667,492.167 407,492.5C 407.49,491.207 407.657,489.873 407.5,488.5 Z"/></g>
<g><path style="opacity:1" fill="#c7d6d9" d="M 589.5,473.5 C 589.5,473.833 589.5,474.167 589.5,474.5C 589.168,508.671 589.502,542.671 590.5,576.5C 590.44,577.043 590.107,577.376 589.5,577.5C 588.17,542.669 588.17,508.002 589.5,473.5 Z"/></g>
<g><path style="opacity:1" fill="#508583" d="M 408.5,474.5 C 408.833,474.5 409.167,474.5 409.5,474.5C 409.5,496.167 409.5,517.833 409.5,539.5C 410.833,539.5 412.167,539.5 413.5,539.5C 412.081,540.451 410.415,540.784 408.5,540.5C 408.5,523.167 408.5,505.833 408.5,488.5C 408.5,483.833 408.5,479.167 408.5,474.5 Z"/></g>
<g><path style="opacity:1" fill="#a8be75" d="M 686.5,556.5 C 684.935,563.761 682.602,570.761 679.5,577.5C 674.061,573.853 668.061,571.686 661.5,571C 658.175,566.826 654.175,563.66 649.5,561.5C 649.938,561.565 650.272,561.399 650.5,561C 649.833,560.667 649.167,560.333 648.5,560C 651.96,557.945 654.96,558.611 657.5,562C 658.5,562.667 659.5,562.667 660.5,562C 660.167,561.667 659.833,561.333 659.5,561C 660.956,560.577 661.456,559.744 661,558.5C 660.586,558.957 660.086,559.291 659.5,559.5C 655.622,557.599 655.622,555.766 659.5,554C 658.663,552.989 658.33,551.822 658.5,550.5C 659.552,550.649 660.552,550.483 661.5,550C 658.507,549.573 658.007,548.406 660,546.5C 661.067,548.283 662.567,548.783 664.5,548C 663.167,547.333 663.167,546.667 664.5,546C 663.551,545.383 662.718,545.549 662,546.5C 661.333,545.167 661.333,543.833 662,542.5C 662.414,542.957 662.914,543.291 663.5,543.5C 664.435,540.898 666.102,538.898 668.5,537.5C 668.64,538.569 668.64,539.736 668.5,541C 670.076,541.44 671.41,542.273 672.5,543.5C 674.134,543.032 675.3,542.032 676,540.5C 676.333,541.833 676.667,543.167 677,544.5C 677.308,543.692 677.808,543.025 678.5,542.5C 680.271,543.035 680.604,543.869 679.5,545C 682.032,546.536 683.866,548.702 685,551.5C 685.654,550.304 686.154,550.304 686.5,551.5C 685.948,553.003 685.948,554.669 686.5,556.5 Z"/></g>
<g><path style="opacity:1" fill="#c27f51" d="M 468.5,635.5 C 467.325,635.281 466.325,635.614 465.5,636.5C 467.396,637.466 469.396,637.799 471.5,637.5C 490.085,640.542 508.751,643.042 527.5,645C 537.5,645.667 547.5,645.667 557.5,645C 564.968,643.533 569.968,639.2 572.5,632C 590.173,629.231 605.84,622.231 619.5,611C 630.397,601.261 641.397,591.761 652.5,582.5C 658.926,579.736 665.26,579.903 671.5,583C 674.848,586.419 675.348,590.252 673,594.5C 656.673,620.163 636.173,641.996 611.5,660C 585.908,671.975 559.908,682.975 533.5,693C 522.506,696.287 511.506,696.287 500.5,693C 469.743,686.062 439.409,677.728 409.5,668C 384.428,660.8 359.094,659.633 333.5,664.5C 331.511,643.192 330.844,621.526 331.5,599.5C 343.367,596.326 354.7,591.993 365.5,586.5C 372.849,583.771 380.182,580.938 387.5,578C 409.883,571.934 432.216,572.268 454.5,579C 470.724,584.779 486.724,591.113 502.5,598C 513.807,599.453 525.141,600.786 536.5,602C 543.879,603.682 550.879,606.348 557.5,610C 566.961,617.686 567.961,626.353 560.5,636C 554.543,638.963 548.21,640.129 541.5,639.5C 521.526,637.613 501.526,635.947 481.5,634.5C 477.141,634.649 472.808,634.983 468.5,635.5 Z"/></g>
<g><path style="opacity:1" fill="#c48257" d="M 646.5,570.5 C 648.838,571.682 650.838,573.348 652.5,575.5C 646.693,579.474 641.026,583.64 635.5,588C 626.091,597.414 616.091,606.08 605.5,614C 595.738,619.756 585.405,624.256 574.5,627.5C 573.348,624.894 573.182,622.227 574,619.5C 588.917,613.798 601.417,604.798 611.5,592.5C 617.675,585.16 624.675,578.66 632.5,573C 636.922,570.896 641.588,570.063 646.5,570.5 Z"/></g>
<g><path style="opacity:1" fill="#c28156" d="M 607.5,589.5 C 597.804,599.698 586.804,608.198 574.5,615C 573.365,615.749 572.365,615.583 571.5,614.5C 570.167,612.5 568.833,610.5 567.5,608.5C 573.01,604.912 578.343,601.078 583.5,597C 588.044,591.96 592.378,586.794 596.5,581.5C 602.577,575.153 609.91,572.82 618.5,574.5C 619.521,575.002 619.688,575.668 619,576.5C 614.587,580.408 610.753,584.741 607.5,589.5 Z"/></g>
<g><path style="opacity:1" fill="#e6d0c3" d="M 331.5,599.5 C 330.844,621.526 331.511,643.192 333.5,664.5C 332.791,665.404 331.791,665.737 330.5,665.5C 330.169,643.327 330.503,621.327 331.5,599.5 Z"/></g>
<g><path style="opacity:1" fill="#dbb596" d="M 468.5,635.5 C 469.5,636.167 470.5,636.833 471.5,637.5C 469.396,637.799 467.396,637.466 465.5,636.5C 466.325,635.614 467.325,635.281 468.5,635.5 Z"/></g>
</svg>
